<svg width="155" height="154" viewBox="0 0 155 154" fill="none" xmlns="http://www.w3.org/2000/svg">
<path d="M110.699 31.6782C110.643 31.6783 110.588 31.6662 110.537 31.6427C110.486 31.6192 110.441 31.5849 110.405 31.5422C110.368 31.4995 110.342 31.4494 110.327 31.3954C110.312 31.3414 110.31 31.2848 110.319 31.2296C110.594 29.6062 111.097 26.1792 111.584 22.863C113.017 13.0914 113.048 13.0884 113.451 13.0937C113.751 13.0937 113.963 13.4631 113.77 13.727C113.453 15.0696 111.666 27.8888 111.077 31.3574C111.062 31.4469 111.016 31.5283 110.947 31.587C110.878 31.6457 110.79 31.678 110.699 31.6782Z" fill="#FF7449"/>
<path d="M117.642 36.5177C117.575 36.5176 117.508 36.4998 117.45 36.4659C117.391 36.432 117.343 36.3834 117.309 36.3248C117.275 36.2662 117.258 36.1998 117.258 36.1322C117.258 36.0647 117.276 35.9983 117.31 35.9399C121.699 28.3834 126.686 21.2109 131.182 13.763C131.235 13.6756 131.32 13.6126 131.419 13.588C131.468 13.5758 131.519 13.5734 131.569 13.5809C131.619 13.5885 131.667 13.6057 131.711 13.6318C131.754 13.6579 131.792 13.6922 131.822 13.7329C131.852 13.7735 131.873 13.8197 131.886 13.8687C131.898 13.9178 131.9 13.9688 131.893 14.0187C131.885 14.0687 131.868 14.1167 131.842 14.16C127.348 21.6026 122.337 28.8158 117.976 36.3261C117.942 36.3844 117.894 36.4328 117.835 36.4665C117.777 36.5001 117.71 36.5178 117.643 36.5177H117.642Z" fill="#FF7449"/>
<path d="M123.861 42.2555C123.475 42.2555 123.33 41.7492 123.656 41.5446C126.283 39.9019 135.343 32.8071 137.447 31.9599C137.54 31.9265 137.643 31.9306 137.734 31.9713C137.825 32.0121 137.896 32.0864 137.933 32.1786C137.97 32.2708 137.97 32.3738 137.933 32.4661C137.896 32.5583 137.825 32.6325 137.734 32.6732C135.633 33.5188 124.473 42.2555 123.861 42.2555Z" fill="#FF7449"/>
<path d="M112.537 73.4312C109.85 61.6699 102.539 36.3839 90.561 36.6378C86.3908 36.727 56.3021 45.7369 46.1612 44.682C38.5663 43.8857 38.8379 37.1187 32.8295 33.22C27.7998 29.96 6.18464 38.4705 4.70583 41.9714C3.80253 44.1065 4.19416 47.4935 4.74968 49.3639L29.0163 139.989C29.0547 140.133 29.1771 140.537 29.3402 140.213C36.0487 126.904 48.3648 111.063 56.586 99.2482C66.2491 85.3572 70.6932 83.6791 79.3576 82.3341C102.82 78.6879 100.824 78.8248 113.338 77.2352C113.338 77.2352 113.073 75.781 112.536 73.432L112.537 73.4312Z" fill="#FFB949"/>
<path d="M112.912 73.3459C110.179 61.3876 102.811 35.9808 90.5531 36.2539C86.249 36.3455 56.3118 45.3515 46.2017 44.2997C38.7915 43.5234 39.1808 36.8825 33.0393 32.8977C27.7758 29.4854 5.91513 38.1205 4.35168 41.8214C3.38453 44.1081 3.83925 47.6505 4.38169 49.4732C5.12571 51.9846 28.7722 140.563 28.8006 140.666C28.814 140.715 28.8368 140.76 28.8678 140.8C28.8987 140.84 28.9373 140.874 28.9812 140.899C29.0251 140.924 29.0735 140.94 29.1236 140.946C29.1738 140.953 29.2247 140.949 29.2734 140.936C29.3222 140.922 29.3678 140.899 29.4078 140.868C29.4477 140.837 29.4811 140.799 29.5062 140.755C29.5312 140.711 29.5474 140.663 29.5537 140.613C29.5601 140.562 29.5564 140.512 29.5431 140.463C29.5146 140.36 5.86666 51.7738 5.11956 49.254C4.60867 47.5374 4.17241 44.2204 5.06031 42.1207C6.4945 38.7245 27.8958 30.4818 32.6208 33.5425C35.009 35.0921 36.374 37.1018 37.6943 39.0454C42.9025 46.7103 45.2654 47.6028 79.2927 39.4301C84.8279 38.1013 89.1997 37.0518 90.5701 37.0233C98.7959 36.8356 104.737 49.2955 108.3 59.7672C110.337 65.7533 112.171 73.0135 112.962 77.3038C112.971 77.3535 112.989 77.4009 113.017 77.4434C113.044 77.4858 113.08 77.5224 113.121 77.5512C113.163 77.5799 113.21 77.6001 113.259 77.6108C113.309 77.6214 113.36 77.6222 113.409 77.6131C113.459 77.604 113.507 77.5852 113.549 77.5578C113.591 77.5303 113.628 77.4948 113.657 77.4532C113.686 77.4116 113.706 77.3648 113.716 77.3154C113.727 77.266 113.728 77.215 113.719 77.1653C113.716 77.1506 113.446 75.6764 112.913 73.3451L112.912 73.3459Z" fill="white"/>
<path d="M130.982 73.8492C125.052 73.8299 119.37 71.3378 114.981 66.8321C112.576 64.3592 108.654 58.9125 108.458 58.7925C108.157 58.604 103.132 59.128 100.056 58.901C93.6547 58.4278 87.0455 57.543 81.1448 54.9139C76.6307 52.9234 61.8117 45.7386 61.6001 45.7424C61.2624 45.7424 61.3101 45.9009 59.919 48.7293C58.8041 51.0229 51.3115 64.0176 44.8092 70.5253C39.6864 75.6596 32.28 81.5418 26.9395 85.839C20.6403 90.9071 19.7778 91.4311 18.2082 92.379C17.1395 93.0245 17.3849 93.3792 17.8327 93.4423C21.232 93.35 25.1722 94.4195 29.5147 96.6293C37.4405 100.653 42.1301 108.945 44.6676 115.191C44.6854 115.239 44.7127 115.283 44.748 115.321C44.7833 115.359 44.8259 115.389 44.8731 115.41C44.9203 115.431 44.9712 115.442 45.0228 115.443C45.0744 115.444 45.1257 115.434 45.1735 115.414C45.2213 115.395 45.2647 115.366 45.3012 115.33C45.3376 115.293 45.3663 115.25 45.3856 115.202C45.4049 115.154 45.4143 115.103 45.4134 115.051C45.4124 114.999 45.4011 114.948 45.3801 114.901C41.67 105.77 36.3041 99.2145 29.8633 95.9437C26.5486 94.2572 23.4602 93.2223 20.6403 92.8399C23.2671 92.2644 27.8659 91.2887 35.7455 89.8138C40.7997 93.32 46.8804 100.449 49.1841 108.598C49.1957 108.649 49.2176 108.697 49.2484 108.739C49.2791 108.781 49.3181 108.817 49.363 108.843C49.4079 108.87 49.4577 108.887 49.5094 108.894C49.5611 108.9 49.6136 108.896 49.6638 108.882C49.7139 108.868 49.7607 108.844 49.8012 108.811C49.8417 108.778 49.8751 108.737 49.8994 108.691C49.9237 108.645 49.9384 108.595 49.9425 108.543C49.9466 108.491 49.9402 108.438 49.9235 108.389C47.6606 100.38 41.8292 93.3392 36.7911 89.6199C41.312 88.7803 45.8359 87.957 50.3628 87.1501C53.6036 90.6624 55.0216 96.43 53.9714 101.92C53.9542 102.019 53.9768 102.121 54.0341 102.204C54.0915 102.287 54.1791 102.344 54.2781 102.363C54.3772 102.382 54.4797 102.361 54.5636 102.305C54.6475 102.25 54.7062 102.163 54.7269 102.064C55.7857 96.5269 54.4222 90.704 51.2523 86.9923C79.3021 82.0311 78.775 82.9844 79.5521 82.6659C83.9401 79.9614 88.6759 76.5675 93.6178 72.5927C94.0748 74.0615 95.3728 78.1187 97.5564 79.6898C97.788 79.9183 98.0989 79.8345 98.2089 79.6198C98.2328 79.5757 98.2477 79.5273 98.2527 79.4774C98.2577 79.4276 98.2528 79.3772 98.2382 79.3292C98.2236 79.2813 98.1996 79.2367 98.1676 79.1981C98.1357 79.1595 98.0963 79.1276 98.0519 79.1043C96.0984 77.6947 94.9651 74.2439 94.2618 72.0811C96.9017 69.9364 99.491 67.7301 102.028 65.4641C102.964 66.509 106.152 70.0059 108.063 71.3401C111.638 73.8453 116.749 75.8443 121.388 76.4613C121.893 76.5275 121.995 75.7666 121.49 75.6989C116.932 75.0926 111.946 73.1228 108.504 70.71C106.681 69.4366 103.516 65.9681 102.602 64.9509C104.857 62.9258 106.813 61.0877 108.218 59.6973C109.51 61.3808 112.53 65.4172 114.429 67.3699C118.965 72.0257 124.842 74.6101 130.98 74.6201C131.082 74.6203 131.18 74.58 131.252 74.508C131.324 74.436 131.365 74.3382 131.365 74.2362C131.366 74.1342 131.325 74.0362 131.253 73.9639C131.181 73.8916 131.083 73.8509 130.981 73.8507L130.982 73.8492ZM80.8324 55.6171C86.8193 58.2816 93.4693 59.1849 99.9986 59.6681C101.808 59.802 105.481 59.6442 107.266 59.5534C105.517 61.2504 103.733 62.9109 101.914 64.5339C86.7523 65.2563 79.2036 65.6295 66.8168 56.2173C65.4051 53.1093 63.9476 50.0223 62.4449 46.9573C62.4449 46.9573 77.2639 54.0437 80.8332 55.6179L80.8324 55.6171ZM37.5682 88.6927C41.3045 86.1298 50.9476 79.372 54.9624 75.1957C60.1198 69.8274 65.1417 60.0897 66.4967 57.3621C68.0932 60.8237 70.1322 64.8162 71.9218 68.5664C71.137 69.4081 67.8347 72.9474 63.7691 77.2554C59.8174 81.4441 51.0984 85.9936 50.3836 86.3629C46.178 87.1124 41.7923 87.911 37.5682 88.6927ZM64.3292 77.7832C68.1048 73.7822 71.224 70.4422 72.2796 69.3104C74.9249 74.8494 77.0885 79.1066 78.725 81.9957C74.4886 82.3343 65.7842 83.6569 52.7995 85.9367C55.8226 84.2547 61.3262 80.9678 64.3292 77.7832ZM79.4952 81.7934C77.9056 79.0058 75.7951 74.8679 73.2145 69.4789C76.5583 71.0893 85.1981 74.744 91.7274 73.1175C87.4448 76.4921 83.3415 79.4013 79.4952 81.7934ZM93.6132 71.6163C88.1804 74.357 78.9704 71.584 72.6728 68.3494C71.9064 66.7421 68.3302 59.4696 67.4892 57.6738C79.3852 66.3381 87.2255 66.0065 101.001 65.3471C98.5862 67.4924 96.1229 69.5827 93.6132 71.6163ZM45.3531 71.0677C50.8106 65.6049 58.1247 54.2468 61.6086 47.0004C63.1471 50.1311 64.6384 53.2848 66.082 56.4604C65.3756 57.9161 59.9559 68.8857 54.4076 74.6609C49.6288 79.6313 36.698 88.3603 35.6878 89.0397C27.1742 90.6324 22.4669 91.6465 19.9363 92.2044C22.5138 90.4939 38.8577 77.577 45.3524 71.067L45.3531 71.0677Z" fill="#501200"/>
<path d="M131.524 75.0111C136.318 74.3986 141.09 74.0193 145.86 74.5371C147.099 74.6694 150.011 74.891 150.334 76.9569C151.076 81.675 134.088 107.9 131.802 110.186C97.5996 119.095 62.3304 124.967 29.1709 140.568C34.3937 129.303 50.6299 107.807 56.5867 99.2484C59.9798 94.3703 65.0472 87.6164 69.9822 85.0635C75.6936 82.1143 82.7137 82.1389 88.6852 81.001C103.887 78.1049 120.24 76.453 131.524 75.0111Z" fill="#FFB949"/>
<path d="M150.715 76.8974C150.388 74.7992 147.996 74.3784 145.903 74.1552C138.897 73.4074 132.473 74.5384 123.752 75.5764C92.1924 79.335 92.6802 80.2167 83.191 81.4231C78.6276 82.0033 73.9095 82.6042 69.8055 84.7224C64.7904 87.3169 59.68 94.13 56.2714 99.0297C50.45 107.397 34.0807 129.069 28.8225 140.404C28.79 140.475 28.7795 140.553 28.7926 140.63C28.8056 140.707 28.8415 140.777 28.8955 140.833C28.9495 140.889 29.0192 140.927 29.0953 140.943C29.1714 140.958 29.2504 140.95 29.3219 140.92C60.7656 127.54 77.7543 123.559 101.268 118.049C101.658 117.957 131.626 110.906 132.074 110.459C133.951 108.582 151.51 81.9533 150.715 76.8967V76.8974ZM131.602 109.841C88.2953 121.115 72.4038 121.839 29.9574 139.814C35.5949 128.344 51.2356 107.613 56.9031 99.4682C60.2647 94.6363 65.2959 87.9209 70.1594 85.4056C74.1411 83.3498 78.7915 82.7581 83.2879 82.1856C92.4517 81.0207 92.4047 80.0828 123.843 76.3396C132.802 75.2724 138.741 74.1776 145.974 74.9354C147.18 75.0616 149.689 75.324 149.954 77.0159C150.633 81.3493 134.519 106.766 131.601 109.841H131.602Z" fill="white"/>
</svg>
